<svg xmlns="http://www.w3.org/2000/svg" viewBox="0 0 680 260" width="100%" style="max-width:680px">
  <!-- === 前序遍历 === -->
  <!-- 标题 -->
  <text x="110" y="22" text-anchor="middle" font-family="sans-serif" font-size="13" fill="#e74c3c" font-weight="bold">前序遍历</text>
  <text x="110" y="38" text-anchor="middle" font-family="sans-serif" font-size="11" fill="#666">根 → 左 → 右</text>

  <!-- 连接线 -->
  <line x1="110" y1="72" x2="70" y2="122" stroke="#333" stroke-width="1.2"/>
  <line x1="110" y1="72" x2="150" y2="122" stroke="#333" stroke-width="1.2"/>
  <line x1="70" y1="142" x2="50" y2="185" stroke="#333" stroke-width="1.2"/>
  <line x1="70" y1="142" x2="90" y2="185" stroke="#333" stroke-width="1.2"/>
  <line x1="150" y1="142" x2="170" y2="185" stroke="#333" stroke-width="1.2"/>

  <!-- 节点 -->
  <circle cx="110" cy="62" r="17" fill="#fff" stroke="#333" stroke-width="1.5"/>
  <text x="110" y="67" text-anchor="middle" font-family="sans-serif" font-size="12" fill="#333">A</text>

  <circle cx="70" cy="132" r="17" fill="#fff" stroke="#333" stroke-width="1.5"/>
  <text x="70" y="137" text-anchor="middle" font-family="sans-serif" font-size="12" fill="#333">B</text>

  <circle cx="150" cy="132" r="17" fill="#fff" stroke="#333" stroke-width="1.5"/>
  <text x="150" y="137" text-anchor="middle" font-family="sans-serif" font-size="12" fill="#333">C</text>

  <circle cx="50" cy="195" r="17" fill="#fff" stroke="#333" stroke-width="1.5"/>
  <text x="50" y="200" text-anchor="middle" font-family="sans-serif" font-size="12" fill="#333">D</text>

  <circle cx="90" cy="195" r="17" fill="#fff" stroke="#333" stroke-width="1.5"/>
  <text x="90" y="200" text-anchor="middle" font-family="sans-serif" font-size="12" fill="#333">E</text>

  <circle cx="170" cy="195" r="17" fill="#fff" stroke="#333" stroke-width="1.5"/>
  <text x="170" y="200" text-anchor="middle" font-family="sans-serif" font-size="12" fill="#333">F</text>

  <!-- 前序编号 -->
  <circle cx="125" cy="49" r="8" fill="#e74c3c"/>
  <text x="125" y="53" text-anchor="middle" font-family="sans-serif" font-size="9" fill="#fff" font-weight="bold">1</text>

  <circle cx="85" cy="119" r="8" fill="#e74c3c"/>
  <text x="85" y="123" text-anchor="middle" font-family="sans-serif" font-size="9" fill="#fff" font-weight="bold">2</text>

  <circle cx="65" cy="182" r="8" fill="#e74c3c"/>
  <text x="65" y="186" text-anchor="middle" font-family="sans-serif" font-size="9" fill="#fff" font-weight="bold">3</text>

  <circle cx="105" cy="182" r="8" fill="#e74c3c"/>
  <text x="105" y="186" text-anchor="middle" font-family="sans-serif" font-size="9" fill="#fff" font-weight="bold">4</text>

  <circle cx="165" cy="119" r="8" fill="#e74c3c"/>
  <text x="165" y="123" text-anchor="middle" font-family="sans-serif" font-size="9" fill="#fff" font-weight="bold">5</text>

  <circle cx="185" cy="182" r="8" fill="#e74c3c"/>
  <text x="185" y="186" text-anchor="middle" font-family="sans-serif" font-size="9" fill="#fff" font-weight="bold">6</text>

  <!-- 前序结果 -->
  <text x="110" y="240" text-anchor="middle" font-family="sans-serif" font-size="11" fill="#e74c3c">A B D E C F</text>

  <!-- === 中序遍历 === -->
  <!-- 标题 -->
  <text x="340" y="22" text-anchor="middle" font-family="sans-serif" font-size="13" fill="#3498db" font-weight="bold">中序遍历</text>
  <text x="340" y="38" text-anchor="middle" font-family="sans-serif" font-size="11" fill="#666">左 → 根 → 右</text>

  <!-- 连接线 -->
  <line x1="340" y1="72" x2="300" y2="122" stroke="#333" stroke-width="1.2"/>
  <line x1="340" y1="72" x2="380" y2="122" stroke="#333" stroke-width="1.2"/>
  <line x1="300" y1="142" x2="280" y2="185" stroke="#333" stroke-width="1.2"/>
  <line x1="300" y1="142" x2="320" y2="185" stroke="#333" stroke-width="1.2"/>
  <line x1="380" y1="142" x2="400" y2="185" stroke="#333" stroke-width="1.2"/>

  <!-- 节点 -->
  <circle cx="340" cy="62" r="17" fill="#fff" stroke="#333" stroke-width="1.5"/>
  <text x="340" y="67" text-anchor="middle" font-family="sans-serif" font-size="12" fill="#333">A</text>

  <circle cx="300" cy="132" r="17" fill="#fff" stroke="#333" stroke-width="1.5"/>
  <text x="300" y="137" text-anchor="middle" font-family="sans-serif" font-size="12" fill="#333">B</text>

  <circle cx="380" cy="132" r="17" fill="#fff" stroke="#333" stroke-width="1.5"/>
  <text x="380" y="137" text-anchor="middle" font-family="sans-serif" font-size="12" fill="#333">C</text>

  <circle cx="280" cy="195" r="17" fill="#fff" stroke="#333" stroke-width="1.5"/>
  <text x="280" y="200" text-anchor="middle" font-family="sans-serif" font-size="12" fill="#333">D</text>

  <circle cx="320" cy="195" r="17" fill="#fff" stroke="#333" stroke-width="1.5"/>
  <text x="320" y="200" text-anchor="middle" font-family="sans-serif" font-size="12" fill="#333">E</text>

  <circle cx="400" cy="195" r="17" fill="#fff" stroke="#333" stroke-width="1.5"/>
  <text x="400" y="200" text-anchor="middle" font-family="sans-serif" font-size="12" fill="#333">F</text>

  <!-- 中序编号 -->
  <circle cx="355" cy="49" r="8" fill="#3498db"/>
  <text x="355" y="53" text-anchor="middle" font-family="sans-serif" font-size="9" fill="#fff" font-weight="bold">4</text>

  <circle cx="315" cy="119" r="8" fill="#3498db"/>
  <text x="315" y="123" text-anchor="middle" font-family="sans-serif" font-size="9" fill="#fff" font-weight="bold">2</text>

  <circle cx="295" cy="182" r="8" fill="#3498db"/>
  <text x="295" y="186" text-anchor="middle" font-family="sans-serif" font-size="9" fill="#fff" font-weight="bold">1</text>

  <circle cx="335" cy="182" r="8" fill="#3498db"/>
  <text x="335" y="186" text-anchor="middle" font-family="sans-serif" font-size="9" fill="#fff" font-weight="bold">3</text>

  <circle cx="395" cy="119" r="8" fill="#3498db"/>
  <text x="395" y="123" text-anchor="middle" font-family="sans-serif" font-size="9" fill="#fff" font-weight="bold">5</text>

  <circle cx="415" cy="182" r="8" fill="#3498db"/>
  <text x="415" y="186" text-anchor="middle" font-family="sans-serif" font-size="9" fill="#fff" font-weight="bold">6</text>

  <!-- 中序结果 -->
  <text x="340" y="240" text-anchor="middle" font-family="sans-serif" font-size="11" fill="#3498db">D B E A C F</text>

  <!-- === 后序遍历 === -->
  <!-- 标题 -->
  <text x="570" y="22" text-anchor="middle" font-family="sans-serif" font-size="13" fill="#8e44ad" font-weight="bold">后序遍历</text>
  <text x="570" y="38" text-anchor="middle" font-family="sans-serif" font-size="11" fill="#666">左 → 右 → 根</text>

  <!-- 连接线 -->
  <line x1="570" y1="72" x2="530" y2="122" stroke="#333" stroke-width="1.2"/>
  <line x1="570" y1="72" x2="610" y2="122" stroke="#333" stroke-width="1.2"/>
  <line x1="530" y1="142" x2="510" y2="185" stroke="#333" stroke-width="1.2"/>
  <line x1="530" y1="142" x2="550" y2="185" stroke="#333" stroke-width="1.2"/>
  <line x1="610" y1="142" x2="630" y2="185" stroke="#333" stroke-width="1.2"/>

  <!-- 节点 -->
  <circle cx="570" cy="62" r="17" fill="#fff" stroke="#333" stroke-width="1.5"/>
  <text x="570" y="67" text-anchor="middle" font-family="sans-serif" font-size="12" fill="#333">A</text>

  <circle cx="530" cy="132" r="17" fill="#fff" stroke="#333" stroke-width="1.5"/>
  <text x="530" y="137" text-anchor="middle" font-family="sans-serif" font-size="12" fill="#333">B</text>

  <circle cx="610" cy="132" r="17" fill="#fff" stroke="#333" stroke-width="1.5"/>
  <text x="610" y="137" text-anchor="middle" font-family="sans-serif" font-size="12" fill="#333">C</text>

  <circle cx="510" cy="195" r="17" fill="#fff" stroke="#333" stroke-width="1.5"/>
  <text x="510" y="200" text-anchor="middle" font-family="sans-serif" font-size="12" fill="#333">D</text>

  <circle cx="550" cy="195" r="17" fill="#fff" stroke="#333" stroke-width="1.5"/>
  <text x="550" y="200" text-anchor="middle" font-family="sans-serif" font-size="12" fill="#333">E</text>

  <circle cx="630" cy="195" r="17" fill="#fff" stroke="#333" stroke-width="1.5"/>
  <text x="630" y="200" text-anchor="middle" font-family="sans-serif" font-size="12" fill="#333">F</text>

  <!-- 后序编号 -->
  <circle cx="585" cy="49" r="8" fill="#8e44ad"/>
  <text x="585" y="53" text-anchor="middle" font-family="sans-serif" font-size="9" fill="#fff" font-weight="bold">6</text>

  <circle cx="545" cy="119" r="8" fill="#8e44ad"/>
  <text x="545" y="123" text-anchor="middle" font-family="sans-serif" font-size="9" fill="#fff" font-weight="bold">3</text>

  <circle cx="525" cy="182" r="8" fill="#8e44ad"/>
  <text x="525" y="186" text-anchor="middle" font-family="sans-serif" font-size="9" fill="#fff" font-weight="bold">1</text>

  <circle cx="565" cy="182" r="8" fill="#8e44ad"/>
  <text x="565" y="186" text-anchor="middle" font-family="sans-serif" font-size="9" fill="#fff" font-weight="bold">2</text>

  <circle cx="625" cy="119" r="8" fill="#8e44ad"/>
  <text x="625" y="123" text-anchor="middle" font-family="sans-serif" font-size="9" fill="#fff" font-weight="bold">5</text>

  <circle cx="645" cy="182" r="8" fill="#8e44ad"/>
  <text x="645" y="186" text-anchor="middle" font-family="sans-serif" font-size="9" fill="#fff" font-weight="bold">4</text>

  <!-- 后序结果 -->
  <text x="570" y="240" text-anchor="middle" font-family="sans-serif" font-size="11" fill="#8e44ad">D E B F C A</text>
</svg>
